<svg id="Layer_1" data-name="Layer 1" xmlns="http://www.w3.org/2000/svg" viewBox="0 0 1500 1500"><defs><style>.cls-1{fill:#1e5f79;}.cls-2{fill:#29a2b4;}.cls-3{fill:#a8d2e4;}.cls-4{fill:#fff;}</style></defs><path class="cls-1" d="M1443.67,363.82C1214.46,405,1050.43,538.92,924.23,729.18c-3.08-14.46-5.51-26.64-8.28-38.74-66.9-292-289.13-424.28-522-437.55-11.89-.68-15.25,2.24-14.57,14.09,2.42,42.56,4.1,85.17,5.81,127.77q9.46,234.56,18.53,469.13c.43,11.26,3.76,15.48,15.17,18.08,113.16,25.75,220.2,66.71,317.41,131.23,2.71,1.8,6.51,2.81,9.09,5.08a6.47,6.47,0,0,1,2.5,2.58,14.64,14.64,0,0,1,7.71,2,21.7,21.7,0,0,1,7.4,6.29,2.55,2.55,0,0,1,.36,2.17,28.13,28.13,0,0,1,7.39,3.93,2.61,2.61,0,0,1,.9,2.22,39.74,39.74,0,0,1,10.88,8.6,3.33,3.33,0,0,1,1.31.42,51.58,51.58,0,0,1,7.62,5.8,17.84,17.84,0,0,1,2.2,1.78c.8.63,1.61,1.24,2.47,1.79A98.31,98.31,0,0,1,810,1065.94a2.71,2.71,0,0,1,.88,2.81c1.1,1.08,2,2.44,3,3.28,50.79,44.47,95.08,94.43,128.14,153.75,3.28,5.89,6.47,11.84,11.7,21.42-1.81-57.14-1.26-109.63,2.64-162.09,8.36-112.75,30.37-222.45,76.16-326.19,82-185.67,214.23-319.15,407.18-388.53C1441.42,369.75,1445.13,370.14,1443.67,363.82Z"/><path class="cls-2" d="M837.24,1107.38c-9.88-12.73-20.87-24.61-31.44-36.81-.09-.07-.19-.12-.28-.2-.6-.57-1.25-1.08-1.88-1.61-2.49-.64-4.48-1.77-5.35-4-1.87-1.27-3.76-2.5-5.65-3.72a35.07,35.07,0,0,1-3.33-2.48c-2-.75-3.58-1.76-4.2-3.54a32.49,32.49,0,0,0-4.41-3.12,2.85,2.85,0,0,1-1.47-2c-5.59-1.28-9.35-5.92-13.52-9.81a3.45,3.45,0,0,1-.81.37,3.32,3.32,0,0,1-2.41-.32l-1-.45c-1.55-.63-3.13-1.2-4.63-2a14.13,14.13,0,0,1-2.33-1.48,12.58,12.58,0,0,1-2.41-2.48,1.93,1.93,0,0,1-.3-.65l-.43-.23c-2.63-1.51-5.17-3.05-7-5.52a12,12,0,0,1-1.21-2.26l-.46-.44c-3.58-1.17-6.43-4.2-9.61-6.08a717.61,717.61,0,0,0-70.35-36.77c-86-38.72-175.53-66.41-267.85-85.11-13.21-2.67-18.21-7.55-18.44-22.15-.91-56.64-3.79-113.25-5.71-169.88C367.26,601.83,363.54,499,361,396.05c-.35-14.15-5.07-18.77-17.8-21.18-46.2-8.76-91.92-3.43-137.84,2.4-12.49,1.59-16.19,4.25-12.83,17.72q70.16,281.15,139.33,562.54c9.31,37.61,9.52,37.93,48.8,38.44,65,.85,129.51,7,193.27,19.92,79.5,16.06,155.43,41.27,222.29,89.09,28,20,51.88,44.26,72.38,72.21C865,1150.64,853.18,1127.94,837.24,1107.38Z"/><path class="cls-3" d="M841.23,1169.12c-29.36-16.5-58.86-32.65-90.71-44.06-52.95-19-107.45-29.83-163.47-34.58a677.3,677.3,0,0,0-71.46-2.53A972.73,972.73,0,0,0,324.9,1111c-11.38,2.52-16.84.58-21.57-10.16-31.21-70.83-63-141.38-94.51-212.08Q160.34,779.89,112.08,670.9,85.17,610.38,58,550c-2.61-5.82-4.44-10.75,3.23-13.93,38.86-16.15,78.1-31.1,120.85-32.39,15-.46,24,5.68,28.19,22.3,39.4,155.78,79.74,311.33,119.78,466.94,5.13,20,5.69,20.64,29.46,19.5,105.23-5.06,207.25,11.27,306.26,46.68a526.18,526.18,0,0,1,168.35,98.35c3.48,3,7.41,5.95,7.42,11.35Z"/><path class="cls-4" d="M841.58,1168.77c.46.52.92,1,1.37,1.58l-1.72-1.23Z"/><path class="cls-2" d="M803.64,1068.76s-50.57-41.84-60.92-44.06-8.84,7-8.84,7,17.71,23.71,18.21,24.45,27.7,20.22,27.7,20.22Z"/><path class="cls-1" d="M738.12,1014.21s68.21,47.41,74.28,56.29,5.57-11.33,5.57-11.33l-19.46-31.94L783,1019.49l-26.2-13.72Z"/></svg>