<svg id="Layer_1" data-name="Layer 1" xmlns="http://www.w3.org/2000/svg" viewBox="0 0 1500 1500"><defs><style>.cls-1{fill:#1e5f79;}.cls-2{fill:#21607a;}.cls-3{fill:#29a2b4;}.cls-4{fill:#a8d2e4;}.cls-5{fill:#a8d2e2;}</style></defs><path class="cls-1" d="M1134.12,430.08C952.76,462.69,823,568.63,723.12,719.16c-2.44-11.43-4.36-21.07-6.55-30.65-52.94-231.07-228.77-335.7-413-346.2-9.41-.54-12.07,1.77-11.53,11.14,1.92,33.68,3.24,67.39,4.6,101.1q7.49,185.59,14.66,371.2c.34,8.9,3,12.24,12,14.3,89.54,20.37,174.23,52.78,251.15,103.83,2.14,1.42,5.15,2.23,7.19,4a5.25,5.25,0,0,1,2,2,11.64,11.64,0,0,1,6.1,1.59,17.11,17.11,0,0,1,5.85,5,2,2,0,0,1,.29,1.72,22.35,22.35,0,0,1,5.84,3.11,2.08,2.08,0,0,1,.72,1.76,31.27,31.27,0,0,1,8.61,6.8,2.55,2.55,0,0,1,1,.34,41.28,41.28,0,0,1,6,4.58,13.92,13.92,0,0,1,1.74,1.41c.63.5,1.28,1,2,1.42a77.64,77.64,0,0,1,10.91,8,2.15,2.15,0,0,1,.69,2.23c.87.85,1.62,1.93,2.38,2.59,40.19,35.19,75.23,74.72,101.39,121.65,2.6,4.66,5.12,9.37,9.26,17-1.44-45.21-1-86.74,2.08-128.25,6.62-89.21,24-176,60.27-258.09,64.84-146.91,169.5-252.53,322.17-307.42C1132.34,434.77,1135.28,435.08,1134.12,430.08Z"/><path class="cls-2" d="M1436,946.1c8.36-3.76,12-11,17.45-16.49,2-2,3.12-7.32,7.08-4.65a8.58,8.58,0,0,1,3.08,9.88c-4.52,14.28-9.9,28.16-21.81,37.94-5,4.08-6.48,8.44-7.07,14.57-3.43,35.07-13.4,67.76-37.21,94.83-22.33,25.38-49.92,34.86-83.18,27.31-20.87-4.73-34-17.25-39.54-37.87-.82-3.08-.9-6.42-4-9.35-16.85,20.45-36.83,36.16-63,42.91a136.5,136.5,0,0,1-44,3.74c-18.71-1.32-28.9-8.48-43.91-29.7-7.56,6.27-15,12.71-22.69,18.74-13.83,10.8-29.72,13.4-46.64,10.67-24.65-4-37.39-19-38-44-.76-33.42,11-64.71,16.18-97.1.59-3.65,1.57-7.26,1.86-10.93.8-10.1.56-20.19-8.82-26.7-9.84-6.82-19.66-2.58-29.31,1.22-6,2.36-8.1,6.89-9.38,13.15-10.43,51.14-21.49,102.16-31.84,153.33-1.86,9.22-5.08,13.07-15.09,12.26a290.29,290.29,0,0,0-39.46-.08c-9.22.52-11.57-2.73-9.22-11.14,1.19-4.3,3.09-8.58,1.79-14.07-8,5.44-15.55,11-23.47,15.86-9.18,5.69-19,9.34-30.2,9-37.95-1.07-56.57-21.58-49.84-59.22,9-50.16,20.34-99.89,30.55-149.84,1.13-5.52,4-7.11,9.4-7,14.81.34,29.65.66,44.42-.08,9.82-.49,10.48,3.15,8.67,11.47q-15.24,69.9-29.58,140c-3.93,19.16,7.84,29.38,26.39,23.28,13.05-4.29,21.73-11.15,24.62-26.85,8.57-46.48,19.4-92.54,28.91-138.85,1.38-6.71,4.06-8.69,10.58-8.5,14.39.41,28.84.83,43.18-.11,10.59-.69,12.06,3,8.65,11.77-.85,2.17-.55,4.78-.88,8.24,10.77-5.07,19.75-11.49,30.09-15.34,19.59-7.3,37.87-6.77,54.18,7.64,16.85,14.9,22.91,33.58,18.43,55.63q-8.6,42.32-17.33,84.61c-1.68,8.13-2,15.72,6.55,20.43s24.52,3,30.44-3c3.25-3.3,1.66-7,1.48-10.48-2-39.78,3.13-78.09,23.84-113,25.6-43.18,69.11-55.79,111.23-46,17.78,4.14,25,16.15,22.6,34-.58,4.25-.59,8.35-7.27,5.87-5.87-2.18-12.06.17-17.95,1.19-.51-.92-1.31-1.67-1.18-2.21,1.78-7.79,3.72-15.91-4.36-21.24-7.73-5.1-15.78-3-23.39,1.1-11.84,6.3-18.94,16.9-24.75,28.37a184,184,0,0,0-19.76,99.14c1.78,22.93,13.94,33.33,36.7,31.34,23.74-2.08,42.27-14.72,59-30.58,3.9-3.69,2.37-8.47,2.52-12.84,1.17-34.33,8.09-67,28.16-95.66,24-34.3,67.81-51.49,104.78-41.57a42.89,42.89,0,0,1,15.49,7.24c6.29,4.88,6.48,11.21,3.81,17.74-2.87,7-9.21,10.33-16.07,12.26-2.9.82-3.71-2.49-5.24-4.31-8.86-10.6-19.36-12.27-31.59-4.89-8.72,5.26-14.68,13.21-19.26,22-15.68,30.21-21.54,62.89-22.44,96.48-.47,17.64,6.23,26.49,19.75,30.12,13.83,3.71,24-.68,33-14.89,12.45-19.54,16.65-41.8,20.45-64.15.56-3.28-.94-4.7-3.47-6.79-9.53-7.92-10.71-18.72-4.21-30.93,7.36-13.83,20.24-20.81,31.94-17.9C1433.55,935,1435.09,940.1,1436,946.1Z"/><path class="cls-3" d="M654.29,1018.41c-7.82-10.08-16.51-19.47-24.88-29.12-.07-.06-.14-.1-.21-.17-.48-.44-1-.85-1.5-1.27-2-.5-3.54-1.4-4.23-3.17-1.47-1-3-2-4.47-2.94a29.67,29.67,0,0,1-2.64-2c-1.54-.59-2.83-1.39-3.32-2.8a24.84,24.84,0,0,0-3.48-2.46,2.24,2.24,0,0,1-1.17-1.56c-4.42-1-7.4-4.69-10.7-7.77a2.47,2.47,0,0,1-.64.3,2.71,2.71,0,0,1-1.91-.25q-.37-.19-.78-.36c-1.22-.5-2.47-1-3.66-1.54a11.59,11.59,0,0,1-1.85-1.18,10.09,10.09,0,0,1-1.9-2,1.38,1.38,0,0,1-.24-.52l-.34-.17a17,17,0,0,1-5.54-4.38,9,9,0,0,1-1-1.78l-.36-.35c-2.84-.93-5.09-3.32-7.61-4.81a568.2,568.2,0,0,0-55.67-29.1c-68-30.63-138.88-52.54-211.92-67.33-10.46-2.12-14.41-6-14.6-17.53-.72-44.82-3-89.61-4.52-134.41-2.76-81.41-5.71-162.81-7.74-244.23-.28-11.19-4-14.85-14.08-16.76-36.56-6.93-72.74-2.71-109.07,1.9-9.88,1.26-12.81,3.36-10.15,14q55.5,222.45,110.24,445.1c7.37,29.76,7.53,30,38.62,30.42,51.46.67,102.47,5.58,152.91,15.76,62.91,12.71,123,32.65,175.89,70.49a254.09,254.09,0,0,1,57.27,57.14C676.25,1052.64,666.9,1034.68,654.29,1018.41Z"/><path class="cls-4" d="M657.45,1067.26c-23.23-13.06-46.58-25.83-71.78-34.86-41.89-15-85-23.6-129.34-27.36a539.66,539.66,0,0,0-56.54-2,770.69,770.69,0,0,0-150.88,18.25c-9,2-13.32.46-17.07-8-24.69-56-49.87-111.86-74.78-167.8q-38.35-86.16-76.54-172.39-21.28-47.88-42.76-95.69c-2.07-4.6-3.51-8.5,2.55-11,30.75-12.77,61.8-24.6,95.63-25.63,11.88-.35,19,4.5,22.3,17.65C189.42,681.62,221.33,804.69,253,927.83c4.06,15.77,4.51,16.32,23.31,15.42,83.27-4,164,8.92,242.33,36.94A416.3,416.3,0,0,1,651.85,1058c2.75,2.38,5.87,4.71,5.88,9Z"/><path class="cls-2" d="M859.79,802.57c20.23-.06,34.85,14.62,34.76,34.91-.09,19.39-14.93,34-34.55,34a33.89,33.89,0,0,1-34.26-34.41C825.79,817.43,840.4,802.62,859.79,802.57Z"/><path class="cls-5" d="M657.73,1067l1.08,1.25-1.36-1Z"/><path class="cls-3" d="M627.7,987.85s-40-33.11-48.19-34.86-7,5.56-7,5.56,14,18.75,14.41,19.34,21.91,16,21.91,16Z"/><path class="cls-1" d="M575.86,944.69s54,37.52,58.77,44.54,4.41-9,4.41-9L623.64,955l-12.24-6.12L590.67,938Z"/><path class="cls-1" d="M266,1184.18H240.77v20.66h29.35v6.28h-37v-58.29h36.64v6.28h-29v18.78H266Z"/><path class="cls-1" d="M283.51,1189.1q0-10,4.72-16a14.94,14.94,0,0,1,12.38-6.07q7.61,0,12.05,5.2v-22.58h7.41v61.5h-6.81l-.36-4.64q-4.44,5.44-12.37,5.44a14.81,14.81,0,0,1-12.28-6.16q-4.74-6.16-4.74-16.1Zm7.41.84q0,7.36,3,11.53a9.83,9.83,0,0,0,8.41,4.17,10.8,10.8,0,0,0,10.29-6.33v-19.9a10.9,10.9,0,0,0-10.21-6.12,9.89,9.89,0,0,0-8.49,4.2Q290.92,1181.69,290.92,1189.94Z"/><path class="cls-1" d="M365.85,1206.84q-4.34,5.09-12.7,5.08-6.91,0-10.55-4T338.94,1196V1167.8h7.41v28q0,9.84,8,9.85,8.47,0,11.29-6.33V1167.8h7.4v43.32h-7Z"/><path class="cls-1" d="M409.23,1205.88a10.61,10.61,0,0,0,6.92-2.41,8.46,8.46,0,0,0,3.29-6h7a13.48,13.48,0,0,1-2.56,7.09,16.89,16.89,0,0,1-6.31,5.36,18.11,18.11,0,0,1-8.34,2q-8.85,0-14.08-5.9t-5.22-16.16v-1.24a26,26,0,0,1,2.32-11.25,17.73,17.73,0,0,1,6.67-7.65,18.94,18.94,0,0,1,10.27-2.72,17.38,17.38,0,0,1,12.11,4.36,15.61,15.61,0,0,1,5.14,11.33h-7a10.22,10.22,0,0,0-3.19-6.9,9.9,9.9,0,0,0-7.06-2.7,10.36,10.36,0,0,0-8.75,4.06q-3.1,4.06-3.11,11.75v1.4q0,7.48,3.09,11.53A10.4,10.4,0,0,0,409.23,1205.88Z"/><path class="cls-1" d="M469.06,1211.12a15.49,15.49,0,0,1-1-4.56,16.53,16.53,0,0,1-12.33,5.36,15.26,15.26,0,0,1-10.51-3.62,11.72,11.72,0,0,1-4.11-9.19,12.26,12.26,0,0,1,5.15-10.51q5.14-3.75,14.47-3.74h7.21v-3.41a8.29,8.29,0,0,0-2.32-6.18q-2.32-2.31-6.85-2.31a10.79,10.79,0,0,0-6.65,2,5.91,5.91,0,0,0-2.68,4.84H442a10.18,10.18,0,0,1,2.31-6.26,15.67,15.67,0,0,1,6.24-4.79,21.09,21.09,0,0,1,8.67-1.76q7.49,0,11.73,3.74t4.41,10.31V1201a24.27,24.27,0,0,0,1.52,9.49v.64Zm-12.29-5.64a13,13,0,0,0,6.61-1.81,10.93,10.93,0,0,0,4.52-4.68v-8.89h-5.81q-13.6,0-13.61,8a6.72,6.72,0,0,0,2.32,5.44A8.93,8.93,0,0,0,456.77,1205.48Z"/><path class="cls-1" d="M504.51,1157.31v10.49h8.09v5.73h-8.09v26.9a6,6,0,0,0,1.08,3.9,4.55,4.55,0,0,0,3.69,1.31,17.92,17.92,0,0,0,3.52-.48v6a21.6,21.6,0,0,1-5.69.79q-5,0-7.48-3c-1.68-2-2.53-4.84-2.53-8.53v-26.86h-7.88v-5.73h7.88v-10.49Z"/><path class="cls-1" d="M528.83,1156.31a4.42,4.42,0,0,1,1.1-3,4.92,4.92,0,0,1,6.55,0,4.34,4.34,0,0,1,1.12,3,4.21,4.21,0,0,1-1.12,3,4.38,4.38,0,0,1-7.65-3Zm8,54.81h-7.41V1167.8h7.41Z"/><path class="cls-1" d="M554.27,1189.06a25.58,25.58,0,0,1,2.51-11.45,18.64,18.64,0,0,1,7-7.85,19,19,0,0,1,10.19-2.76,18.27,18.27,0,0,1,14.32,6.13q5.46,6.12,5.46,16.29v.52a25.87,25.87,0,0,1-2.42,11.35,18.4,18.4,0,0,1-6.93,7.83,19.15,19.15,0,0,1-10.35,2.8,18.22,18.22,0,0,1-14.27-6.12q-5.46-6.13-5.47-16.22Zm7.45.88q0,7.21,3.34,11.57a11.32,11.32,0,0,0,17.92-.06q3.33-4.42,3.33-12.39,0-7.12-3.39-11.55a11.26,11.26,0,0,0-17.84-.06Q561.72,1181.81,561.72,1189.94Z"/><path class="cls-1" d="M617.55,1167.8l.24,5.45a15.79,15.79,0,0,1,13-6.25q13.72,0,13.85,15.49v28.63h-7.41v-28.67q0-4.68-2.14-6.92c-1.4-1.5-3.58-2.24-6.55-2.24a10.67,10.67,0,0,0-6.32,1.92,13.06,13.06,0,0,0-4.25,5v30.87h-7.4V1167.8Z"/><path class="cls-1" d="M692.34,1211.12v-58.29h16.45a26.52,26.52,0,0,1,13.46,3.36,22.82,22.82,0,0,1,9,9.57A31.22,31.22,0,0,1,734.5,1180v3.73a31.3,31.3,0,0,1-3.18,14.45,22.49,22.49,0,0,1-9.09,9.53,28.21,28.21,0,0,1-13.76,3.4Zm7.69-52v45.73h8.08q8.89,0,13.84-5.53t4.94-15.75v-3.41q0-9.95-4.66-15.45T709,1159.11Z"/><path class="cls-1" d="M770.47,1211.92q-8.81,0-14.33-5.78t-5.53-15.48v-1.36a26,26,0,0,1,2.46-11.51,19.27,19.27,0,0,1,6.89-7.93,17.31,17.31,0,0,1,9.59-2.86q8.44,0,13.13,5.56t4.69,15.94v3.08H758a15.41,15.41,0,0,0,3.74,10.35,11.78,11.78,0,0,0,9.11,4,13,13,0,0,0,6.65-1.6,16.82,16.82,0,0,0,4.76-4.25l4.53,3.52Q781.37,1211.92,770.47,1211.92Zm-.92-38.83a9.87,9.87,0,0,0-7.53,3.26q-3,3.26-3.76,9.15H780v-.56c-.21-3.77-1.23-6.68-3-8.75A9.3,9.3,0,0,0,769.55,1173.09Z"/><path class="cls-1" d="M811.53,1211.12h-7.41v-61.5h7.41Z"/><path class="cls-1" d="M831,1156.31a4.42,4.42,0,0,1,1.1-3,4.92,4.92,0,0,1,6.55,0,4.34,4.34,0,0,1,1.12,3,4.21,4.21,0,0,1-1.12,3,4.38,4.38,0,0,1-7.65-3Zm8,54.81h-7.41V1167.8H839Z"/><path class="cls-1" d="M872.66,1201.07l10.73-33.27H891l-15.54,43.32h-5.64l-15.7-43.32h7.57Z"/><path class="cls-1" d="M923.09,1211.92q-8.82,0-14.34-5.78t-5.52-15.48v-1.36a26,26,0,0,1,2.46-11.51,19.2,19.2,0,0,1,6.89-7.93,17.29,17.29,0,0,1,9.59-2.86q8.45,0,13.13,5.56T940,1188.5v3.08H910.63a15.42,15.42,0,0,0,3.75,10.35,11.76,11.76,0,0,0,9.11,4,13,13,0,0,0,6.64-1.6,16.72,16.72,0,0,0,4.77-4.25l4.52,3.52Q934,1211.92,923.09,1211.92Zm-.92-38.83a9.87,9.87,0,0,0-7.53,3.26q-3,3.26-3.76,9.15h21.7v-.56c-.22-3.77-1.23-6.68-3.05-8.75A9.28,9.28,0,0,0,922.17,1173.09Z"/><path class="cls-1" d="M977,1174.45a21.91,21.91,0,0,0-3.65-.28q-7.29,0-9.89,6.2v30.75h-7.4V1167.8h7.2l.12,5a11.53,11.53,0,0,1,10.33-5.8,7.67,7.67,0,0,1,3.29.56Z"/><path class="cls-1" d="M1008.6,1211.92q-8.8,0-14.33-5.78t-5.53-15.48v-1.36a26,26,0,0,1,2.47-11.51,19.17,19.17,0,0,1,6.88-7.93,17.31,17.31,0,0,1,9.59-2.86q8.45,0,13.14,5.56t4.68,15.94v3.08H996.15a15.42,15.42,0,0,0,3.75,10.35,11.74,11.74,0,0,0,9.1,4,13,13,0,0,0,6.65-1.6,17,17,0,0,0,4.77-4.25l4.52,3.52Q1019.49,1211.92,1008.6,1211.92Zm-.92-38.83a9.83,9.83,0,0,0-7.52,3.26q-3,3.26-3.77,9.15h21.7v-.56c-.21-3.77-1.23-6.68-3-8.75A9.3,9.3,0,0,0,1007.68,1173.09Z"/><path class="cls-1" d="M1039.81,1189.1q0-10,4.73-16a14.91,14.91,0,0,1,12.37-6.07q7.6,0,12,5.2v-22.58h7.41v61.5h-6.81l-.36-4.64q-4.44,5.44-12.37,5.44a14.78,14.78,0,0,1-12.27-6.16q-4.75-6.16-4.75-16.1Zm7.41.84q0,7.36,3,11.53a9.83,9.83,0,0,0,8.41,4.17,10.8,10.8,0,0,0,10.29-6.33v-19.9a10.9,10.9,0,0,0-10.21-6.12,9.89,9.89,0,0,0-8.49,4.2Q1047.22,1181.69,1047.22,1189.94Z"/><path class="cls-1" d="M1095.16,1222.73l-4.2-2.88a19.34,19.34,0,0,0,3.92-10.81v-6.69h7.25v5.81a18.26,18.26,0,0,1-2,8.09A19,19,0,0,1,1095.16,1222.73Z"/><path class="cls-1" d="M1165.22,1185.14q-9.88-2.85-14.39-7a13.36,13.36,0,0,1-4.51-10.23,14.1,14.1,0,0,1,5.51-11.39q5.51-4.5,14.31-4.51a23.82,23.82,0,0,1,10.71,2.33,17.6,17.6,0,0,1,7.29,6.4,16.41,16.41,0,0,1,2.58,8.93H1179a10.66,10.66,0,0,0-3.37-8.34q-3.36-3-9.49-3-5.69,0-8.86,2.51a8.34,8.34,0,0,0-3.19,7,7.5,7.5,0,0,0,3,6q3,2.48,10.28,4.52a47.29,47.29,0,0,1,11.38,4.51,17.24,17.24,0,0,1,6.08,5.74,14.67,14.67,0,0,1,2,7.73,13.63,13.63,0,0,1-5.52,11.35q-5.53,4.26-14.78,4.26a27.32,27.32,0,0,1-11.21-2.3,18.89,18.89,0,0,1-8-6.31,15.35,15.35,0,0,1-2.82-9.08h7.73a10,10,0,0,0,3.9,8.34q3.92,3.08,10.43,3.07,6.09,0,9.33-2.49a8,8,0,0,0,3.25-6.76,7.9,7.9,0,0,0-3-6.63Q1173.11,1187.42,1165.22,1185.14Z"/><path class="cls-1" d="M1203.12,1156.31a4.37,4.37,0,0,1,1.1-3,4.12,4.12,0,0,1,3.26-1.25,4.18,4.18,0,0,1,3.28,1.25,4.34,4.34,0,0,1,1.12,3,4.21,4.21,0,0,1-1.12,3,4.26,4.26,0,0,1-3.28,1.2,4,4,0,0,1-4.36-4.2Zm8,54.81h-7.4V1167.8h7.4Z"/><path class="cls-1" d="M1237.49,1167.8l.2,4.8q4.75-5.6,12.85-5.6,9.09,0,12.37,7a16.33,16.33,0,0,1,5.63-5,16.57,16.57,0,0,1,8.18-1.92q14.27,0,14.5,15.09v29h-7.41v-28.59c0-3.09-.71-5.41-2.12-6.94s-3.79-2.3-7.13-2.3a9.8,9.8,0,0,0-6.84,2.46,10,10,0,0,0-3.17,6.62v28.75h-7.44v-28.39q0-9.43-9.25-9.44-7.29,0-10,6.2v31.63h-7.41V1167.8Z"/><path class="cls-1" d="M1346.53,1189.94q0,9.9-4.53,15.94a14.49,14.49,0,0,1-12.25,6q-7.89,0-12.41-5v20.86h-7.41v-60h6.77l.36,4.8q4.53-5.6,12.57-5.6a14.76,14.76,0,0,1,12.35,5.88q4.55,5.89,4.55,16.38Zm-7.41-.84q0-7.32-3.12-11.57a10.06,10.06,0,0,0-8.57-4.24,10.88,10.88,0,0,0-10.09,6V1200a10.92,10.92,0,0,0,10.17,5.93,10,10,0,0,0,8.47-4.23Q1339.11,1197.44,1339.12,1189.1Z"/><path class="cls-1" d="M1371.53,1211.12h-7.41v-61.5h7.41Z"/><path class="cls-1" d="M1405.1,1200.27l10.09-32.47h7.93l-17.42,50q-4,10.82-12.85,10.81l-1.4-.12-2.77-.52v-6l2,.16a9.79,9.79,0,0,0,5.86-1.52c1.4-1,2.56-2.87,3.47-5.56l1.64-4.41-15.46-42.84h8.09Z"/><path class="cls-1" d="M1433.14,1207.24a4.63,4.63,0,0,1,1.14-3.2,4.36,4.36,0,0,1,3.43-1.29,4.46,4.46,0,0,1,3.46,1.29,4.52,4.52,0,0,1,1.18,3.2,4.28,4.28,0,0,1-1.18,3.08,4.55,4.55,0,0,1-3.46,1.24,4.45,4.45,0,0,1-3.43-1.24A4.38,4.38,0,0,1,1433.14,1207.24Z"/></svg>